<svg width="39" height="35" viewBox="0 0 39 35" fill="none" xmlns="http://www.w3.org/2000/svg">
<path d="M35.3616 0H3.21469C1.43991 0 0 1.43991 0 3.21469V24.6459C0 26.4207 1.43991 27.8606 3.21469 27.8606H16.0734L15.0019 31.0753H10.1798C9.28911 31.0753 8.5725 31.7919 8.5725 32.6827C8.5725 33.5734 9.28911 34.29 10.1798 34.29H28.3964C29.2871 34.29 30.0037 33.5734 30.0037 32.6827C30.0037 31.7919 29.2871 31.0753 28.3964 31.0753H23.5744L22.5028 27.8606H35.3616C37.1363 27.8606 38.5762 26.4207 38.5762 24.6459V3.21469C38.5762 1.43991 37.1363 0 35.3616 0ZM34.29 23.5744H4.28625V4.28625H34.29V23.5744Z" fill="#202020"/>
</svg>
