<svg width="30" height="35" viewBox="0 0 30 35" fill="none" xmlns="http://www.w3.org/2000/svg">
<path d="M30 24.1071V1.60714C30 0.716518 29.2835 0 28.3929 0H6.42857C2.87946 0 0 2.87946 0 6.42857V27.8571C0 31.4062 2.87946 34.2857 6.42857 34.2857H28.3929C29.2835 34.2857 30 33.5692 30 32.6786V31.6071C30 31.1049 29.7656 30.6496 29.404 30.3549C29.1228 29.3237 29.1228 26.3839 29.404 25.3527C29.7656 25.0647 30 24.6094 30 24.1071ZM8.57143 8.97321C8.57143 8.75223 8.75223 8.57143 8.97321 8.57143H23.1696C23.3906 8.57143 23.5714 8.75223 23.5714 8.97321V10.3125C23.5714 10.5335 23.3906 10.7143 23.1696 10.7143H8.97321C8.75223 10.7143 8.57143 10.5335 8.57143 10.3125V8.97321ZM8.57143 13.2589C8.57143 13.0379 8.75223 12.8571 8.97321 12.8571H23.1696C23.3906 12.8571 23.5714 13.0379 23.5714 13.2589V14.5982C23.5714 14.8192 23.3906 15 23.1696 15H8.97321C8.75223 15 8.57143 14.8192 8.57143 14.5982V13.2589ZM25.5402 30H6.42857C5.2433 30 4.28571 29.0424 4.28571 27.8571C4.28571 26.6786 5.25 25.7143 6.42857 25.7143H25.5402C25.4129 26.8594 25.4129 28.8549 25.5402 30Z" fill="#202020"/>
</svg>
